<?xml version="1.0" encoding="UTF-8" standalone="no"?>
<!-- Created with Inkscape (http://www.inkscape.org/) -->

<svg
   width="6.2541065mm"
   height="8.0386314mm"
   viewBox="0 0 6.2541065 8.0386314"
   version="1.1"
   id="svg1"
   xml:space="preserve"
   xmlns="http://www.w3.org/2000/svg"
   xmlns:svg="http://www.w3.org/2000/svg"><defs
     id="defs1" /><g
     id="g40"
     transform="translate(-1.0397067,-0.2140362)"><path
       d="M 1.0397067,4.2333331 V 0.21403621 l 3.1270553,0.00666 3.127051,0.00666 v 4.00595389 4.005957 l -3.127051,0.0067 -3.1270553,0.0067 z m 6.189632,0 V 0.29305191 H 4.173209 1.117075 v 3.94028119 3.940288 h 3.056134 3.0561297 z m -5.945572,3.776216 c -0.00679,-0.01815 -0.00935,-1.729236 -0.0057,-3.802482 l 0.00667,-3.76954439 h 2.888495 2.8884949 v 3.79581039 3.795809 l -2.882815,0.0067 c -2.2926538,0.0053 -2.8853344,-6.7e-5 -2.8951222,-0.02628 z M 7.0230176,4.2333331 V 0.50319591 H 4.173209 1.3233961 V 4.2333331 7.9634681 H 4.173209 7.0230176 Z M 1.877885,7.7264631 C 1.7557985,7.7001831 1.6872246,7.6439131 1.6293901,7.5224601 1.4407962,7.1264761 1.9376058,6.7762421 2.236763,7.0942831 c 0.1960469,0.208426 0.087814,0.581459 -0.1830398,0.630868 -0.054158,0.0099 -0.1332871,0.01044 -0.1758382,0.0017 z m 0.246726,-0.111473 c 0.1009682,-0.0693 0.1671821,-0.220921 0.1416791,-0.324408 -0.00964,-0.03903 -0.056263,-0.110476 -0.103651,-0.158744 -0.2596703,-0.264483 -0.6717088,0.125457 -0.4351522,0.411808 0.1182092,0.143079 0.25643,0.167915 0.3971241,0.07134 z m 4.2122696,0.110203 c -0.166591,-0.04979 -0.2885141,-0.253843 -0.2597038,-0.434666 0.021127,-0.132495 0.106799,-0.236758 0.2358272,-0.28695 0.2967637,-0.115435 0.5764792,0.144286 0.4962647,0.460793 -0.051094,0.201572 -0.2686618,0.321709 -0.4723881,0.260823 z m 0.2752093,-0.110203 c 0.1009683,-0.0693 0.1671947,-0.220921 0.1416875,-0.324408 -0.00964,-0.03903 -0.056262,-0.110476 -0.1036593,-0.158744 -0.2606596,-0.265501 -0.6726101,0.12435 -0.4351396,0.411808 0.1182007,0.143079 0.2564258,0.167915 0.3971114,0.07134 z M 3.9797819,4.2333331 V 1.788385 l 0.2385562,0.00759 0.2385645,0.00755 v 2.4298411 2.429848 l -0.2385645,0.0076 -0.2385562,0.0076 z m 0.4384344,0 V 1.8428953 H 4.2247935 4.031358 v 2.3904378 2.39044 H 4.2247935 4.4182163 Z M 3.5290404,6.5940991 C 3.4300717,6.5653431 3.340304,6.5278061 3.3295646,6.5105901 3.3041203,6.4698461 3.3039945,1.9970619 3.3294095,1.9563258 3.3474762,1.9273185 3.6939254,1.8166252 3.7664983,1.8166252 c 0.026283,0 0.03278,0.4804573 0.03278,2.4167079 0,2.284827 -0.0021,2.416605 -0.045117,2.414841 -0.024816,-8.39e-4 -0.1261107,-0.02536 -0.2250795,-0.05408 z M 3.7734567,4.2304861 V 1.8634688 l -0.070917,0.017103 c -0.039026,0.00943 -0.1318577,0.034666 -0.2063253,0.05612 l -0.1353957,0.039025 v 2.257628 2.257636 l 0.1482896,0.04208 c 0.081564,0.0231 0.1599052,0.04618 0.1740861,0.05119 0.091776,0.03253 0.090262,0.07184 0.090262,-2.35372 z m 0.8682755,2.375778 c -0.00947,-0.0096 -0.017145,-1.07979 -0.017145,-2.378133 0,-2.1028291 0.00377,-2.3623191 0.03978,-2.3761647 0.021923,-0.00855 0.123428,0.012492 0.2256663,0.046789 l 0.185886,0.062345 v 2.2722237 2.272236 l -0.167639,0.05817 c -0.1769155,0.06139 -0.2383424,0.0712 -0.2664946,0.04252 z m 0.2913604,-0.100096 0.091189,-0.03219 v -2.24068 -2.2406766 l -0.091189,-0.032193 c -0.050151,-0.01769 -0.1284875,-0.040493 -0.1740818,-0.0507 l -0.082893,-0.01857 v 2.3420766 2.34208 l 0.082893,-0.01857 c 0.045582,-0.01023 0.1239309,-0.03303 0.1740818,-0.0507 z M 2.9854879,6.3665551 C 2.9421781,6.3418231 2.8522386,6.2826981 2.7856181,6.2350501 L 2.6644831,6.1484171 V 4.2345361 2.3206531 L 2.7903548,2.2285506 C 2.9429536,2.1168848 3.0608777,2.0530435 3.1145329,2.0530435 c 0.035756,0 0.039948,0.2287096 0.039948,2.1802896 0,2.059375 -0.0021,2.180233 -0.045116,2.179194 -0.024816,-3.99e-4 -0.080571,-0.0213 -0.1238807,-0.04599 z m 0.1174253,-2.133222 c 0,-1.1702637 -0.00746,-2.1277536 -0.016474,-2.1277536 -0.027876,0 -0.2766136,0.1600854 -0.3381243,0.2175929 l -0.058027,0.05425 v 1.8559107 1.855913 l 0.058027,0.05406 c 0.065246,0.06079 0.3055413,0.21652 0.3352739,0.217283 0.010647,2.81e-4 0.019324,-0.956987 0.019324,-2.127253 z m 2.1405874,0 c 0,-2.4676971 -0.030055,-2.2366066 0.264625,-2.0352612 l 0.1738051,0.1187625 v 1.9164987 1.916501 l -0.1738051,0.118758 c -0.2946719,0.20135 -0.264625,0.432449 -0.264625,-2.035259 z m 0.2772424,1.964996 0.1096116,-0.07619 V 4.2333331 2.3445171 L 5.520743,2.2683435 C 5.4604563,2.2264253 5.3850246,2.1781734 5.3531123,2.1610791 l -0.058031,-0.031061 v 2.1033313 2.103344 l 0.058031,-0.03106 c 0.0319,-0.01706 0.107344,-0.06536 0.1676307,-0.10726 z M 2.3173129,5.7992691 C 2.03276,5.4455631 1.8369562,4.9678431 1.7823955,4.4941641 1.7101161,3.8667001 1.9147856,3.1677486 2.3173129,2.6673999 2.4926648,2.449434 2.4839542,2.3675805 2.4839542,4.2333331 c 0,1.865751 0.00872,1.783897 -0.1666413,1.565936 z M 2.4581662,4.2292671 V 2.5965373 l -0.05415,0.049916 c -0.1019114,0.093939 -0.3392351,0.4862559 -0.4165406,0.6885818 -0.3146542,0.823482 -0.1870932,1.711044 0.344324,2.395811 0.055973,0.07213 0.1073062,0.13114 0.1140676,0.13114 0.00679,0 0.012282,-0.734724 0.012282,-1.632719 z m 3.3785053,0.0043 c 0,-1.6323351 0.00126,-1.6811865 0.048851,-1.6811865 0.066558,0 0.3058179,0.3256243 0.4384176,0.5966766 0.3286927,0.6719019 0.3286927,1.4971269 0,2.1690209 -0.1325997,0.271055 -0.37186,0.596679 -0.4384176,0.596679 -0.04743,0 -0.048851,-0.04885 -0.048851,-1.68119 z m 0.188246,1.47761 C 6.609403,4.9359731 6.6859371,3.8966461 6.2205284,3.0548032 6.1412235,2.9113551 5.9226498,2.6048916 5.8996409,2.6048916 c -0.00625,0 -0.011402,0.7328935 -0.011402,1.6286505 0,0.895762 0.00516,1.628658 0.011402,1.628658 0.00625,0 0.062638,-0.06797 0.1252766,-0.151048 z M 1.7591938,1.3892531 C 1.3585696,1.116651 1.7239407,0.50449531 2.149087,0.73603441 2.3896091,0.86702431 2.3999209,1.2526125 2.1667764,1.3974019 2.0513758,1.4690779 1.8712116,1.4654729 1.7591938,1.3892719 Z M 2.1400075,1.3249758 C 2.2236971,1.2698115 2.2853964,1.1183697 2.2663404,1.0148989 2.2420279,0.88294481 2.098081,0.76589261 1.9600991,0.76589261 c -0.2485704,0 -0.382742,0.26308669 -0.242509,0.47551939 0.095422,0.1445505 0.2757752,0.1802312 0.4224174,0.083564 z m 4.0293054,0.064277 C 5.7686928,1.116651 6.1340597,0.50449531 6.5591935,0.73603441 6.7997197,0.86702431 6.8100358,1.2526125 6.576841,1.3974019 6.4614445,1.4690778 6.2812846,1.4654728 6.1692668,1.3892698 Z M 6.5501266,1.3249758 C 6.6338119,1.2698115 6.695507,1.1183697 6.6764511,1.0148989 6.6521385,0.88294481 6.5081958,0.76589261 6.3702139,0.76589261 c -0.2485745,0 -0.3827377,0.26308669 -0.242509,0.47551939 0.095422,0.1445505 0.2757752,0.1802312 0.4224217,0.083564 z"
       style="fill:#000000;stroke-width:0.4654"
       id="path1-38" /><path
       style="opacity:1;fill:#000000;stroke:#000000;stroke-width:0.00698771"
       d="M 7.003268,28.851741 C 6.7014441,28.698041 6.4517006,28.393232 6.350306,28.054807 6.1391752,27.350115 6.9389133,26.50795 7.6498016,26.686371 c 0.2222054,0.05577 0.6429103,0.423997 0.7739585,0.677417 0.4211664,0.814446 -0.6139185,1.898688 -1.4204921,1.487953 z"
       id="path1"
       transform="scale(0.26458333)" /><path
       style="opacity:1;fill:#000000;stroke:#000000;stroke-width:0.00698771"
       d="m 24.002784,28.865017 c -0.422648,-0.188652 -0.73371,-0.657018 -0.73371,-1.104749 0,-0.559606 0.658044,-1.154136 1.197367,-1.081797 0.353086,0.04736 0.569502,0.191847 0.836753,0.558649 0.180954,0.248359 0.209407,0.341151 0.181745,0.592714 -0.04321,0.392971 -0.332371,0.817853 -0.675863,0.993089 -0.319609,0.163053 -0.512716,0.173134 -0.806292,0.04209 z"
       id="path2"
       transform="scale(0.26458333)" /><path
       style="opacity:1;fill:#000000;stroke:#000000;stroke-width:0.00698771"
       d="M 23.783943,5.1298071 C 23.492984,5.0454704 23.078942,4.5772543 23.020676,4.2666723 22.872793,3.4783836 23.531258,2.800391 24.280591,2.9693931 c 0.450515,0.1016077 0.946176,0.6206553 0.944653,0.9892235 -0.0021,0.509114 -0.406002,1.0524506 -0.869021,1.1690404 -0.17078,0.043003 -0.320169,0.075351 -0.331974,0.071885 -0.01181,-0.00347 -0.119943,-0.034847 -0.240306,-0.069735 z"
       id="path3"
       transform="scale(0.26458333)" /><path
       style="opacity:1;fill:#000000;stroke:#000000;stroke-width:0.00698771"
       d="M 7.0925257,5.1020969 C 6.5557098,4.9115172 6.2105167,4.2801114 6.3565492,3.7558941 6.5791416,2.9568474 7.4670052,2.6876066 8.1060834,3.2253554 8.5504581,3.599272 8.6379166,4.0619439 8.3626279,4.5825228 8.101685,5.0759733 7.5986167,5.2817687 7.0925257,5.1020969 Z"
       id="path4"
       transform="scale(0.26458333)" /><path
       style="opacity:1;fill:#ff7f2a;stroke:#000000;stroke-width:0.00698771"
       d="M 8.7970732,21.55599 C 7.4277594,19.681099 6.8388073,17.785057 6.9416055,15.582593 c 0.065082,-1.394389 0.3429423,-2.455039 0.961243,-3.669262 0.3708042,-0.728188 1.0952819,-1.826476 1.2335824,-1.870076 0.069411,-0.02188 0.087346,1.200424 0.087346,5.952778 0,3.289173 -0.026932,5.980315 -0.059849,5.980315 -0.032917,0 -0.1980017,-0.189161 -0.3668547,-0.420358 z"
       id="path5"
       transform="scale(0.26458333)" /><path
       style="opacity:1;fill:#ff7f2a;stroke:#000000;stroke-width:0.00698771"
       d="M 11.004897,23.609168 C 10.736281,23.431111 10.445753,23.221239 10.35928,23.142786 L 10.202057,23.000143 V 16.001856 9.0035685 L 10.35928,8.8591433 c 0.08647,-0.079434 0.408781,-0.3075272 0.71624,-0.5068743 l 0.559017,-0.362449 0.01799,7.884197 c 0.0099,4.336308 0.003,7.923503 -0.01528,7.971544 -0.05074,0.133231 -0.10577,0.11266 -0.632354,-0.236393 z"
       id="path6"
       transform="scale(0.26458333)" /><path
       style="opacity:1;fill:#ff7f2a;stroke:#000000;stroke-width:0.00698771"
       d="m 13.258902,24.655743 -0.541826,-0.171338 0.01775,-8.497849 0.01775,-8.4978489 0.698771,-0.195839 c 0.384324,-0.1077115 0.726199,-0.1968524 0.759723,-0.1980908 0.06957,-0.00257 0.0049,17.1676707 -0.06599,17.5194317 -0.05573,0.276528 -0.131779,0.280092 -0.886176,0.04153 z"
       id="path7"
       transform="scale(0.26458333)" /><path
       style="opacity:1;fill:#ffd42a;stroke:#000000;stroke-width:0.00494106"
       d="M 8.9561765,21.703594 C 8.7215715,21.450823 8.1721004,20.562504 7.8788312,19.961871 7.2718155,18.718667 7.029949,17.765494 6.9822613,16.428574 c -0.062758,-1.759423 0.2255743,-3.0895 0.9884367,-4.559657 0.3106124,-0.5986 1.004252,-1.670158 1.1011044,-1.701024 0.1026198,-0.0327 0.1185646,0.72703 0.1183392,5.638592 -2.134e-4,4.650423 -0.022256,6.008282 -0.097533,6.008282 -0.018287,0 -0.079681,-0.05003 -0.1364321,-0.111173 z"
       id="path27"
       transform="scale(0.26458333)" /><path
       style="opacity:1;fill:#ffd42a;stroke:#000000;stroke-width:0.00494106"
       d="M 11.067528,23.610197 C 10.836776,23.456299 10.55348,23.253508 10.437983,23.15955 L 10.227988,22.988717 V 16.008192 9.0276664 l 0.184733,-0.1621977 c 0.18597,-0.1632833 1.111924,-0.7868403 1.168423,-0.7868403 0.01669,0 0.03034,3.5575616 0.03034,7.9056916 0,6.321423 -0.01247,7.905691 -0.0622,7.905691 -0.03421,0 -0.251,-0.125916 -0.481753,-0.279814 z"
       id="path28"
       transform="scale(0.26458333)" /><path
       style="opacity:1;fill:#ffd42a;stroke:#000000;stroke-width:0.00494106"
       d="m 13.229681,24.619425 -0.481754,-0.152056 5.1e-5,-5.859721 c 2.8e-5,-3.222846 0.01474,-7.040485 0.0327,-8.483643 l 0.03265,-2.6239216 0.664496,-0.1829168 c 0.365473,-0.1006042 0.674473,-0.1729398 0.686667,-0.1607458 0.08798,0.087978 0.02736,17.2009082 -0.06203,17.5118072 -0.04445,0.154607 -0.267901,0.142113 -0.872771,-0.0488 z"
       id="path29"
       transform="scale(0.26458333)" /><path
       style="opacity:1;fill:#ffd42a;stroke:#000000;stroke-width:0.00494106"
       d="M 15.267867,16.009025 V 6.9915959 h 0.691748 0.691748 v 9.0174291 9.017429 h -0.691748 -0.691748 z"
       id="path30"
       transform="scale(0.26458333)" /><path
       style="opacity:1;fill:#ffd42a;stroke:#000000;stroke-width:0.00494106"
       d="m 17.688985,16.004643 c 0,-4.848473 0.01712,-8.8154048 0.03805,-8.8154048 0.06343,0 0.761554,0.1953223 1.012064,0.2831565 l 0.234841,0.08234 -0.01249,8.4495213 -0.01249,8.449521 -0.345874,0.116156 c -0.190231,0.06389 -0.473724,0.146297 -0.629985,0.183135 l -0.28411,0.06698 z"
       id="path31"
       transform="scale(0.26458333)" /><path
       style="opacity:1;fill:#ffd42a;stroke:#000000;stroke-width:0.00494106"
       d="m 20.060692,16.011941 c 0,-4.336146 0.01396,-7.883902 0.03103,-7.883902 0.01707,0 0.283885,0.1662708 0.592926,0.3694905 l 0.561894,0.3694906 v 7.1355499 7.13555 l -0.531164,0.343474 c -0.29214,0.188911 -0.558957,0.359399 -0.592927,0.378862 -0.0493,0.02825 -0.06176,-1.55546 -0.06176,-7.848515 z"
       id="path32"
       transform="scale(0.26458333)" /><path
       style="opacity:1;fill:#ffd42a;stroke:#000000;stroke-width:0.00494106"
       d="m 22.309734,21.805587 c -0.0458,-0.254122 -0.0062,-11.737011 0.04063,-11.783485 0.05235,-0.051945 0.18559,0.11173 0.670393,0.823518 0.808807,1.187491 1.300526,2.433893 1.510706,3.82932 0.08746,0.580639 0.09796,1.834665 0.02069,2.470528 -0.13222,1.088058 -0.574532,2.407608 -1.135611,3.387865 -0.316867,0.553597 -0.914566,1.385741 -1.01836,1.417807 -0.03399,0.0105 -0.07142,-0.05111 -0.08844,-0.145553 z"
       id="path33"
       transform="scale(0.26458333)" /><path
       style="opacity:1;fill:#ffd42a;stroke:#000000;stroke-width:0.00698771"
       d="M 7.0159779,5.0029291 C 6.6846181,4.8524418 6.4320937,4.4918192 6.3785527,4.0926408 6.301314,3.5167839 6.9390253,2.8921889 7.4966165,2.9975729 8.5459265,3.1958912 8.7881019,4.379657 7.9015851,4.9770805 7.6170342,5.1688394 7.3955331,5.1753044 7.0159779,5.0029291 Z"
       id="path34"
       transform="scale(0.26458333)" /><path
       style="opacity:1;fill:#ffd42a;stroke:#000000;stroke-width:0.00698771"
       d="M 23.641412,5.0044037 C 23.077947,4.6504294 22.891851,3.9476241 23.229869,3.4501855 23.40939,3.1859965 23.77567,2.9697768 24.04369,2.9697768 c 0.274053,0 0.760248,0.2833436 0.939932,0.5477709 0.208739,0.3071877 0.219597,0.62255 0.03396,0.9864243 -0.277128,0.5432157 -0.930096,0.7806612 -1.376172,0.5004317 z"
       id="path35"
       transform="scale(0.26458333)" /><path
       style="opacity:1;fill:#ffd42a;stroke:#000000;stroke-width:0.00698771"
       d="m 23.892496,28.735295 c -0.591963,-0.398924 -0.740441,-1.090807 -0.33354,-1.554241 0.547426,-0.623484 1.194653,-0.604445 1.668055,0.04907 0.272367,0.375991 0.27466,0.69346 0.008,1.113866 -0.336473,0.530562 -0.894551,0.693221 -1.342562,0.391307 z"
       id="path36"
       transform="scale(0.26458333)" /><path
       style="opacity:1;fill:#ffffff;stroke:#000000;stroke-width:0.00698771"
       d="M 6.9117614,28.734891 C 6.7817578,28.647282 6.6028733,28.450752 6.5142403,28.298159 5.9869716,27.390398 7.1284345,26.285761 7.9478737,26.910777 c 0.5422284,0.413578 0.6603806,0.982404 0.3057449,1.471965 -0.3608511,0.49814 -0.9109847,0.642514 -1.3418572,0.352149 z"
       id="path37"
       transform="scale(0.26458333)" /><path
       style="opacity:1;fill:#ffffff;stroke:#000000;stroke-width:0.00698771"
       d="m 23.894611,28.666843 c -0.478964,-0.322774 -0.654778,-0.978779 -0.366601,-1.367877 0.47954,-0.647478 1.231829,-0.66103 1.660681,-0.02992 0.304952,0.448778 0.209828,0.908368 -0.276367,1.335252 -0.31111,0.273158 -0.672248,0.295352 -1.017713,0.06254 z"
       id="path38"
       transform="scale(0.26458333)" /><path
       style="opacity:1;fill:#ffffff;stroke:#000000;stroke-width:0.00698771"
       d="M 23.635291,4.9267131 C 22.789854,4.4112441 23.08448,3.0418902 24.041205,3.0401143 24.337303,3.0395647 24.80712,3.3230242 24.971593,3.6014554 25.44462,4.4022257 24.428255,5.4101896 23.635291,4.9267131 Z"
       id="path39"
       transform="scale(0.26458333)" /><path
       style="opacity:1;fill:#ffffff;stroke:#000000;stroke-width:0.00698771"
       d="M 6.9822372,4.9072034 C 6.2784518,4.4329225 6.2553362,3.5932215 6.9346635,3.1790306 7.7932936,2.6555175 8.7806781,3.7529553 8.2085554,4.5949095 7.8855165,5.0703041 7.4056128,5.1925162 6.9822372,4.9072034 Z"
       id="path40"
       transform="scale(0.26458333)" /></g></svg>
