<?xml version="1.0" encoding="UTF-8" standalone="no"?>
<!-- Created with Inkscape (http://www.inkscape.org/) -->

<svg
   width="20.633045mm"
   height="4.5539207mm"
   viewBox="0 0 18.757315 4.1399282"
   version="1.1"
   id="svg1"
   xml:space="preserve"
   xmlns="http://www.w3.org/2000/svg"
   xmlns:svg="http://www.w3.org/2000/svg"
   xmlns:rdf="http://www.w3.org/1999/02/22-rdf-syntax-ns#"
   xmlns:cc="http://creativecommons.org/ns#"><defs
     id="defs1" /><metadata
     id="metadata107"><rdf:RDF><cc:Work
         rdf:about="" /></rdf:RDF></metadata><g
     id="g3"
     transform="translate(0.00207104,0.35136505)"><path
       style="font-size:18.6667px;font-family:'Colonna MT';-inkscape-font-specification:'Colonna MT, Normal';white-space:pre;shape-padding:48.2068;fill:#ff6600;stroke:#2b1100;stroke-width:0.0261242;stroke-dasharray:none"
       d="M 0.95251305,1.4590888 H 0.91559321 V -0.30646685 H 1.4268313 c 0.093724,0 0.1860332,-0.006751 0.2769201,-0.020102 0,0.0212194 -0.00142,0.0597473 -0.00426,0.11558355 -0.00284,0.0513666 -0.00426,0.11558355 -0.00426,0.19263692 0,0.04913174 -0.00233,0.09883383 -0.00709,0.14908416 h -0.034079 c -0.00193,-0.09157056 -0.021303,-0.16751 -0.058223,-0.22781249 C 1.5579672,-0.15850012 1.4779698,-0.189206 1.3558414,-0.189206 H 1.0334773 v 1.1993732 c 0,0.137357 0.01657,0.2406558 0.049699,0.3098942 0.03314,0.069234 0.084258,0.1122313 0.1533719,0.128981 v 0.030147 C 1.0689763,1.4657922 0.97430316,1.4590876 0.95252724,1.4590876 Z M 0.34186707,-0.30646685 H 0.81050288 V 0.57631213 1.4590888 H 0.7678976 c -0.0615365,0 -0.15337193,0.00675 -0.2754993,0.020102 v -0.030147 c 0.0785826,-0.023454 0.13254357,-0.07091 0.16189298,-0.1423831 0.0283968,-0.070351 0.0426053,-0.187612 0.0426053,-0.35177208 V -0.18920483 H 0.33477092 c -0.0918284,0 -0.1566859,0.0223368 -0.19455534,0.0670105 C 0.10234309,-0.07753227 0.07063235,0.00678785 0.04507324,0.1307451 H 0.01240986 C 0.01147547,0.1162302 0.01099106,0.1005979 0.01099106,0.08383657 c 0,-0.02233684 0.0019255,-0.05080787 0.0056753,-0.08542474 0.01136073,-0.11948988 0.01704616,-0.22781367 0.01704616,-0.3249702 0.05017573,0.007799 0.11266179,0.0128387 0.18745311,0.0150736 z M 2.317234,1.4590888 H 2.26043 v -1.76555565 h 0.3521857 c 0.1022476,0 0.2371576,-0.006751 0.4047299,-0.020102 -9.344e-4,0.0290297 -0.00142,0.0669989 -0.00142,0.11390741 0,0.0268065 0.00142,0.0770557 0.00426,0.15075797 0.00284,0.0815254 0.00426,0.12395725 0.00426,0.12730719 V 0.10895999 H 2.9946246 C 2.9681128,-0.0920518 2.8876421,-0.19255827 2.7532055,-0.19255827 H 2.4777051 c -0.031245,0 -0.059175,0.005005 -0.083782,0.0150736 -0.012313,0.08821831 -0.018465,0.20603671 -0.018465,0.35344589 v 0.346746 h 0.2485194 c 0.1069814,0 0.1850867,-0.0156439 0.2343159,-0.0468969 0.04828,-0.0301588 0.079525,-0.084319 0.093723,-0.16248626 h 0.031245 c -0.00659,0.1206073 -0.00993,0.20380534 -0.00993,0.24959063 0,0.027924 0.00142,0.0753796 0.00426,0.14238427 0.00375,0.0636466 0.00568,0.10943772 0.00568,0.13735819 v 0.0552776 H 2.9520173 C 2.9472541,0.72149112 2.867283,0.63326816 2.712019,0.63326816 H 2.3754535 V 1.0218815 c 0,0.2523818 0.065327,0.394765 0.1959741,0.4271493 V 1.479178 C 2.436991,1.4657805 2.3522587,1.459076 2.317229,1.459076 Z M 2.1510815,-0.30646685 V 1.4590888 c -0.083315,0 -0.1827193,0.00675 -0.2982217,0.020102 v -0.030147 c 0.065327,-0.023454 0.1121885,-0.07091 0.1405903,-0.1423831 0.028397,-0.070351 0.042605,-0.1853772 0.042605,-0.34507103 V 0.13409039 c 0,-0.15187539 -0.017036,-0.25796433 -0.051118,-0.31826798 -0.035035,-0.0591886 -0.079049,-0.0960403 -0.1320703,-0.11055514 v -0.0318233 c 0.101304,0.0100103 0.2007079,0.0167497 0.2982217,0.020102 z m 2.064833,1.16754519 0.4544334,-1.16754519 h 0.1093488 l 0.066746,1.76555565 h -0.055385 c -0.039768,0 -0.091828,0.00338 -0.1562106,0.01001 l -0.093724,0.01001 v -0.030147 c 0.1136083,-0.036852 0.170413,-0.1569003 0.170413,-0.3601469 0,0.00338 -9.344e-4,-0.03407 -0.00284,-0.1122313 L 4.6717789,6.668622e-7 4.2173465,1.1742469 3.629422,-0.30654251 H 3.7501306 Z M 4.9515286,1.4590888 4.8833642,-0.30646685 h 0.048281 c 0.069107,0 0.1661525,-0.006751 0.2911205,-0.020102 v 0.0301472 c -0.065327,0.0133975 -0.1155014,0.0491317 -0.1505312,0.10720287 -0.03692,0.0580711 -0.055385,0.12842578 -0.055385,0.21106278 l 0.00284,0.17923598 0.031244,0.80237452 c 0.00568,0.1462917 0.025093,0.2540568 0.058223,0.323294 0.03314,0.070351 0.085211,0.1111139 0.1562116,0.1222811 v 0.030147 C 5.1252485,1.4657794 5.0206345,1.4590748 4.9515225,1.4590748 Z M 3.5129618,-0.30646685 4.1605297,1.3200568 4.0952029,1.4791896 3.5072794,0.00175246 3.4703596,1.0017865 c -0.00193,0.1005099 -0.00284,0.1418267 -0.00284,0.1239572 0,0.1954282 0.063908,0.3031944 0.1917147,0.3232941 v 0.030147 c -9.354e-4,0 -0.014198,-0.00163 -0.039768,-0.00501 -0.1060348,-0.01001 -0.1760923,-0.015074 -0.2101755,-0.015074 -0.045443,0 -0.1273365,0.00675 -0.2456787,0.020102 V 1.4490611 C 3.283852,1.4122093 3.3491757,1.2670338 3.3595899,1.0135357 l 0.041186,-1.14409556 c -0.055861,-0.0826312 -0.13491,-0.13791574 -0.2371576,-0.16583388 v -0.0301472 c 0.076687,0.0100103 0.158579,0.0156323 0.2456786,0.0167497 z m 2.9112157,0.23618969 C 6.3162496,0.09388291 6.2622856,0.31220429 6.2622856,0.58468699 c 0,0.3193854 0.066745,0.55948261 0.2002357,0.72029391 C 6.3612172,1.2547317 6.2807455,1.1637129 6.2211021,1.0319395 6.1614608,0.90128116 6.1316351,0.75387198 6.1316351,0.5897119 c 0,-0.11278999 0.015617,-0.21664641 0.046862,-0.31156809 0.029349,-0.0938054 0.064374,-0.16695246 0.1050883,-0.2194388 0.037872,-0.05024917 0.084734,-0.09324671 0.1405893,-0.12898217 z M 7.6057049,1.0955919 h 0.028397 l -0.045443,0.2830924 c -0.088048,0.040204 -0.1727784,0.069792 -0.2541976,0.088777 -0.08142,0.018985 -0.1599989,0.028471 -0.2357368,0.028471 -0.2291108,0 -0.4085181,-0.078732 -0.538221,-0.2361896 C 6.4307994,1.1034011 6.365949,0.87614494 6.365949,0.57797662 c 0,-0.29704972 0.069583,-0.52430584 0.2087557,-0.68176486 0.1382229,-0.15634276 0.3209443,-0.23451472 0.548161,-0.23451472 0.1647316,0 0.3313584,0.0351756 0.4998763,0.10552673 -0.0076,0.14070814 -0.011361,0.22390502 -0.011361,0.24959064 0,0.02345426 4.672e-4,0.04634982 0.00142,0.06867502 v 0.04020398 c 0,0.0580711 -0.00233,0.11334871 -0.00709,0.16583388 H 7.581571 C 7.5228668,-0.04572526 7.3590828,-0.2143527 7.0902094,-0.2143527 c -0.1817738,0 -0.3266247,0.0697925 -0.4345526,0.20938781 -0.107928,0.13847445 -0.161892,0.33837114 -0.161892,0.59968658 0,0.22892993 0.049699,0.41486581 0.1491114,0.55780881 0.098466,0.1429418 0.2470975,0.2144127 0.4459133,0.2144127 0.1098211,0 0.2101756,-0.025689 0.3010615,-0.077056 C 7.479794,1.2407552 7.551744,1.1759798 7.6057069,1.0955753 Z M 8.0402575,0.3484973 c -0.088048,0.11502484 -0.1320703,0.28476737 -0.1320703,0.50923109 0,0.22446261 0.044024,0.39643991 0.1320703,0.51592981 C 7.8764714,1.2642205 7.7945789,1.0900094 7.7945789,0.85102734 c 0,-0.23562981 0.081897,-0.40313983 0.2456786,-0.50253004 z m 0.781058,1.0067351 c 0.087096,-0.1150249 0.1306494,-0.2747153 0.1306494,-0.47907815 0,-0.11055514 -0.010408,-0.21441272 -0.031244,-0.31156925 -0.021779,-0.0993926 -0.054908,-0.17197739 -0.099409,-0.21776384 0.1656792,0.1083203 0.2485173,0.27471754 0.2485173,0.49918243 0,0.21552781 -0.082839,0.38527151 -0.2485173,0.50922881 z M 8.1240442,0.8476774 c 0,0.2043617 0.026512,0.3428362 0.079525,0.4154245 0.053013,0.072586 0.128282,0.108879 0.2257959,0.108879 0.091828,0 0.1661514,-0.037969 0.2229561,-0.1139074 0.055861,-0.075938 0.083792,-0.2144139 0.083792,-0.41542567 0,-0.33836998 -0.1022476,-0.50755613 -0.3067428,-0.50755613 -0.2035486,0 -0.305322,0.17085996 -0.305322,0.51258104 z M 8.0047545,0.8744723 c 0,-0.21664525 0.037396,-0.37801409 0.1121895,-0.48410419 0.075735,-0.10720287 0.1798786,-0.16080896 0.3124222,-0.16080896 0.1230759,0 0.2248513,0.0474672 0.305323,0.1423831 0.080468,0.0949229 0.1207085,0.25182432 0.1207085,0.47070441 0,0.24009834 -0.043071,0.40760834 -0.1292296,0.50253004 -0.087096,0.09604 -0.1874541,0.1440581 -0.3010625,0.1440581 -0.116448,0 -0.2153826,-0.050249 -0.2968019,-0.150758 C 8.0459409,1.2390843 8.0047545,1.08442 8.0047545,0.8744723 Z M 10.408993,1.459083 V 0.64163371 c 0,-0.11278999 -0.0066,-0.19431073 -0.01988,-0.24456455 -0.0123,-0.0457911 -0.04261,-0.0865422 -0.09089,-0.12228111 0.06437,0.005587 0.115976,0.0318349 0.154792,0.0787318 0.03881,0.0480143 0.05822,0.15690263 0.05822,0.32664516 V 1.0704627 c 0,0.09604 0.0048,0.16416 0.01419,0.2043629 0.0085,0.043556 0.0284,0.080967 0.05964,0.1122312 0.03029,0.032382 0.06627,0.053043 0.107928,0.061982 v 0.030147 c -0.03125,-0.00338 -0.08332,-0.0078 -0.156213,-0.013397 -0.07196,-0.00442 -0.114554,-0.00675 -0.127809,-0.00675 z M 9.5058052,0.26473705 V 1.459083 C 9.4082912,1.464673 9.3235592,1.471375 9.2516066,1.479185 V 1.449038 C 9.2942116,1.432277 9.3297126,1.402129 9.3581157,1.358585 9.3865127,1.315029 9.4007207,1.2106183 9.4007207,1.045342 V 0.633267 c 0,-0.11167257 -0.010895,-0.19431073 -0.032663,-0.2479145 C 9.3453362,0.33510334 9.2994169,0.29825163 9.230307,0.27479736 v -0.028471 c 0.0445,0.006751 0.1363298,0.0128504 0.2755003,0.0184258 z M 9.606633,1.459083 V 0.26473705 c 0.050176,-0.002212 0.088048,-0.005005 0.1136084,-0.008381 l -0.00993,0.088777 c 0.1183421,-0.0703511 0.2281632,-0.10552673 0.3294636,-0.10552673 0.06533,0 0.121182,0.0189846 0.167573,0.0569537 0.04544,0.0390866 0.07385,0.0831899 0.0852,0.13233211 0.01136,0.0502492 0.01705,0.13177572 0.01705,0.24456455 V 1.4590795 c -0.03881,0.00221 -0.07669,0.00559 -0.11361,0.01001 0.0066,-0.1395907 0.0099,-0.2373059 0.0099,-0.2931434 V 0.64158948 c 0,-0.10943772 -0.01326,-0.18649458 -0.03977,-0.23116361 -0.02745,-0.0457795 -0.07669,-0.068675 -0.14769,-0.068675 -0.075735,0 -0.1784599,0.0368517 -0.3081628,0.11055514 V 1.1340732 c 0,0.1786773 0.055861,0.2836499 0.1675723,0.314918 v 0.030147 C 9.7642584,1.4657409 9.6738458,1.4590364 9.6066269,1.4590364 Z m 2.377256,0 V 0.64163371 c 0,-0.11278999 -0.0066,-0.19431073 -0.01988,-0.24456455 -0.01231,-0.0457911 -0.04261,-0.0865422 -0.09089,-0.12228111 0.06437,0.005587 0.115975,0.0318349 0.15479,0.0787318 0.03881,0.0480143 0.05822,0.15690263 0.05822,0.32664516 V 1.0704627 c 0,0.09604 0.0048,0.16416 0.0142,0.2043629 0.0085,0.043556 0.0284,0.080967 0.05964,0.1122312 0.03029,0.032382 0.06627,0.053043 0.107928,0.061982 v 0.030147 c -0.03124,-0.00338 -0.08331,-0.0078 -0.156212,-0.013397 -0.07195,-0.00442 -0.114554,-0.00675 -0.127809,-0.00675 z M 11.080702,0.26473705 V 1.459083 c -0.09751,0.00559 -0.182246,0.012292 -0.254199,0.020102 V 1.449038 c 0.04261,-0.016761 0.07811,-0.046909 0.106508,-0.090453 0.0284,-0.043556 0.04261,-0.1479667 0.04261,-0.313243 V 0.633267 c 0,-0.11167257 -0.01089,-0.19431073 -0.03266,-0.2479145 -0.02272,-0.0502492 -0.06864,-0.0871009 -0.13775,-0.11055514 v -0.028471 c 0.0445,0.006751 0.136329,0.0128504 0.2755,0.0184258 z M 11.18153,1.459083 V 0.26473705 c 0.05017,-0.002212 0.08805,-0.005005 0.113608,-0.008381 l -0.0099,0.088777 c 0.118342,-0.0703511 0.228163,-0.10552673 0.329463,-0.10552673 0.06533,0 0.121182,0.0189846 0.167574,0.0569537 0.04544,0.0390866 0.07385,0.0831899 0.0852,0.13233211 0.01136,0.0502492 0.01705,0.13177572 0.01705,0.24456455 V 1.4590795 c -0.03881,0.00221 -0.07669,0.00559 -0.113609,0.01001 0.0066,-0.1395907 0.0099,-0.2373059 0.0099,-0.2931434 V 0.64158948 c 0,-0.10943772 -0.01326,-0.18649458 -0.03977,-0.23116361 -0.02745,-0.0457795 -0.07669,-0.068675 -0.14769,-0.068675 -0.07573,0 -0.178459,0.0368517 -0.308162,0.11055514 V 1.1340732 c 0,0.1786773 0.05586,0.2836499 0.167571,0.314918 v 0.030147 c -0.113608,-0.013398 -0.204021,-0.020102 -0.271239,-0.020102 z m 1.434306,-0.1340083 -0.0057,0.01001 C 12.467179,1.2379267 12.3957,1.085494 12.3957,0.8777812 c 0,-0.080408 0.01278,-0.15801773 0.03834,-0.23283858 0.02556,-0.0748209 0.07905,-0.15019926 0.160472,-0.2261387 l 0.0071,0.008381 c -0.05964,0.12172473 -0.08947,0.26801533 -0.08947,0.43887529 0,0.17756099 0.03456,0.33055259 0.103669,0.45897729 z m 0.992653,-0.53770794 h -0.12639 c -0.0048,-0.2032443 -0.04971,-0.35232846 -0.134909,-0.44725014 0.152425,0.0748208 0.239525,0.22390384 0.261299,0.44725014 z M 12.740805,0.66340951 h 0.505558 c -0.0048,-0.080408 -0.02699,-0.15187539 -0.06675,-0.21441039 -0.04165,-0.0625408 -0.101304,-0.0938054 -0.178933,-0.0938054 -0.06912,0 -0.127337,0.0284827 -0.174674,0.0854247 -0.04734,0.0569537 -0.07573,0.13121701 -0.08521,0.22278758 z m 0.647568,0.12395725 h -0.658928 c -0.0019,0.0558363 -0.0028,0.0898944 -0.0028,0.1021861 0,0.14517434 0.0336,0.26187294 0.100827,0.35009474 0.06722,0.087101 0.154793,0.1306583 0.262721,0.1306583 0.08899,0 0.169465,-0.028471 0.241418,-0.085425 0.07196,-0.056954 0.128756,-0.1334495 0.170412,-0.2294886 h 0.06106 c -0.08709,0.2936997 -0.252779,0.4405514 -0.497036,0.4405514 -0.146746,0 -0.259881,-0.060306 -0.339406,-0.1809121 -0.07953,-0.1194888 -0.119289,-0.2708066 -0.119289,-0.45395123 0,-0.17644359 0.03692,-0.32329406 0.110768,-0.44055142 0.0729,-0.11614227 0.168046,-0.17420991 0.285441,-0.17420991 0.09468,0 0.177985,0.0418801 0.249938,0.12563106 0.071,0.0826428 0.115976,0.22111378 0.134911,0.41542451 z M 14.01464,0.36524353 c -0.09751,0.10496802 -0.146271,0.26857403 -0.146271,0.49080291 0,0.21218016 0.04165,0.37243046 0.124968,0.48075426 -0.07858,-0.039087 -0.138223,-0.104968 -0.178933,-0.1976619 -0.04165,-0.094923 -0.06249,-0.18928578 -0.06249,-0.28309236 0,-0.0737034 0.01184,-0.14517434 0.0355,-0.21441273 0.02272,-0.0692337 0.05018,-0.12283982 0.08236,-0.16080896 0.03313,-0.0390866 0.08142,-0.0776144 0.144851,-0.11558355 z m 0.840701,0.70856677 h 0.05539 c -0.02745,0.1228421 -0.08094,0.2227876 -0.160472,0.2998421 -0.08142,0.07929 -0.181772,0.1189323 -0.301061,0.1189323 -0.107928,0 -0.194082,-0.025689 -0.25846,-0.077056 -0.06627,-0.052484 -0.120235,-0.1222834 -0.161891,-0.2093889 -0.04355,-0.088218 -0.06533,-0.1982206 -0.06533,-0.329994 0,-0.18314464 0.04261,-0.33390377 0.12781,-0.45227622 0.08332,-0.11837479 0.216802,-0.17756101 0.400469,-0.17756101 0.128756,0 0.256567,0.0273653 0.383429,0.0820841 0,0.0111742 -9.34e-4,0.0267949 -0.0028,0.0469085 -9.34e-4,0.01228 -0.0014,0.0223368 -0.0014,0.0301472 0,0.0379691 0.0023,0.088777 0.0071,0.15243177 0.0028,0.0379691 0.0043,0.064217 0.0043,0.0787318 0,0.0189846 -0.0023,0.0480143 -0.0071,0.0871009 h -0.02983 c -0.02272,-0.12284216 -0.06912,-0.21720513 -0.13917,-0.28309241 -0.06912,-0.064764 -0.151952,-0.0971577 -0.248519,-0.0971577 -0.109822,0 -0.200234,0.0435563 -0.271239,0.13065597 -0.07195,0.0859951 -0.107928,0.207714 -0.107928,0.36517302 0,0.15410908 0.03219,0.28253378 0.09657,0.38527388 0.06343,0.1016274 0.157157,0.1524318 0.281181,0.1524318 0.171359,0 0.304375,-0.1010687 0.399048,-0.3031921 z m 0.345086,-0.046909 V 0.40376439 h -0.09089 v -0.0133974 l 0.195975,-0.2194388 V 1.1257356 c 0,0.1094377 0.009,0.1853771 0.02698,0.2278148 0.01799,0.043556 0.04261,0.075938 0.07384,0.097158 -0.07763,-0.00675 -0.131595,-0.040204 -0.161891,-0.10051 -0.02935,-0.059189 -0.04402,-0.1669513 -0.04402,-0.323294 z m 0.305323,-1.11226641 v 0.37354672 h 0.242837 c 0.0445,0 0.07811,-0.005587 0.100828,-0.0167381 0.02462,-0.01228 0.05301,-0.0374104 0.08521,-0.0753796 h 0.0355 c -0.05775,0.0949228 -0.09893,0.15355036 -0.123548,0.17588604 -0.02367,0.0212194 -0.05964,0.0318233 -0.107929,0.0318233 H 15.505752 V 1.0436626 c 0,0.094923 0.0043,0.1602503 0.01278,0.1959869 0.0076,0.034617 0.02604,0.064776 0.05538,0.090453 0.02935,0.024572 0.07054,0.036852 0.12355,0.036852 0.105087,0 0.226462,-0.2659993 0.26421,-0.37916052 l 0.171882,0.19441432 c 0.0314,0.1775611 -0.323905,0.2969764 -0.471597,0.2969764 -0.06343,0 -0.116449,-0.016738 -0.15905,-0.050249 -0.04355,-0.0335 -0.07242,-0.075938 -0.08663,-0.1273072 -0.0142,-0.052484 -0.0213,-0.1278671 -0.0213,-0.2261387 V 0.06708918 c 0.03977,-0.04914338 0.07669,-0.09995126 0.110768,-0.15243527 z"
       id="text135"
       aria-label="TFM Connect" /><path
       style="fill:none;fill-opacity:1;stroke:#000000;stroke-width:0.29609;stroke-dasharray:none"
       d="m 16.011397,1.2142926 c 0,0 0.104984,-0.37935849 0.107598,-0.39808699 0.02159,-0.15720061 0.06714,-0.51047306 1.188644,-0.30920637 1.256284,0.22545195 1.52732,1.00972766 1.134731,1.61844906 -0.392588,0.6087203 -4.561922,1.9643254 -5.798577,1.2654232 -0.668942,-0.3780559 0.857472,-0.4616614 1.765093,-0.6520901 0.770274,-0.1616119 1.024795,-0.4554816 -0.149451,-0.4896669 -2.051378,-0.059721 -2.941067,0.2903121 -3.243375,0.222517 -0.0827,-0.018546 0.05619,0.059631 0.05619,0.059631"
       id="path139" /><g
       transform="matrix(2.0225313e-5,-0.00628362,0.00547097,2.3229577e-5,8.8809238,3.3199885)"
       id="g18"
       style="stroke:#ff6600">
	<g
   id="g2"
   style="stroke:#ff6600">
		<path
   id="path1"
   style="fill:#ffe100;stroke:#ff6600"
   d="m 391.98854,104.16863 c -0.0403,0.11594 -0.0773,0.18102 -0.11752,0.29698 -0.0933,2.76006 -0.17601,5.54419 -0.26585,8.30435 0.13382,-2.87477 0.25319,-5.72421 0.38337,-8.60133 z M 152.74615,412.51466 c -0.0901,-1.28833 -0.13309,-2.60356 -0.13309,-3.91395 l -34.16237,0.008 c 0,1.50101 0.0126,2.96921 0.0758,4.44795 0.45731,0.0339 0.9042,0.0764 1.36476,0.17288 0.12633,0.0228 0.28908,0.0435 0.41538,0.0578 0.22734,0.0257 0.48454,0.0188 0.71193,0.0567 0.14904,0.0195 0.32118,0.0388 0.47469,0.0576 0.30322,0.0196 0.58678,0.0382 0.88985,0.056 1.30948,0.0771 2.66002,0.13984 3.97414,0.10393 1.32937,-0.005 2.64432,-0.01 3.97369,-0.0147 1.30539,-0.005 2.60901,-0.008 3.91439,-0.0145 1.22711,-0.006 2.45259,-8.6e-4 3.67715,-0.0136 1.21699,-0.0135 2.4058,-0.0315 3.61763,-0.0727 1.02122,-0.035 2.061,-0.1329 3.0834,-0.18933 1.1322,-0.0673 2.25653,-0.14016 3.37973,-0.24973 1.10172,-0.1177 2.22198,-0.27116 3.31999,-0.36813 0.47637,-0.0521 0.94109,-0.0807 1.42297,-0.12388 z" />
		<polygon
   style="fill:#ffe100;stroke:#ff6600"
   points="178.2,357.4 178.2,237.933 92.867,237.933 92.867,357.4 "
   id="polygon1" />
		<polygon
   style="fill:#ffe100;stroke:#ff6600"
   points="169.667,237.933 169.667,203.8 101.4,203.8 101.4,237.933 "
   id="polygon2" />
	</g>
	<polygon
   style="fill:#ffa800;stroke:#ff6600"
   points="169.667,237.933 169.667,203.8 152.6,203.8 152.6,237.933 "
   id="polygon3" />
	<polygon
   style="fill:#ffffff;stroke:#ff6600"
   points="118.467,237.933 118.467,203.8 101.4,203.8 101.4,237.933 "
   id="polygon4" />
	<polygon
   style="fill:#ffa800;stroke:#ff6600"
   points="178.2,357.4 178.2,237.933 161.133,237.933 161.133,357.4 "
   id="polygon5" />
	<polygon
   style="fill:#ffffff;stroke:#ff6600"
   points="109.933,357.4 109.933,237.933 92.867,237.933 92.867,357.4 "
   id="polygon6" />
	<g
   id="g8"
   style="stroke:#ff6600">
		<polygon
   style="fill:#ffe100;stroke:#ff6600"
   points="161.133,203.8 161.133,84.333 109.933,84.333 109.933,203.8 "
   id="polygon7" />
		<path
   style="fill:#ffe100;stroke:#ff6600"
   d="m 161.133,33.133 h -51.2 c 10.24,15.36 10.24,35.84 0,51.2 v 0 h 51.2 v 0 c -10.24,-15.36 -10.24,-35.84 0,-51.2"
   id="path7" />
		<polygon
   style="fill:#ffe100;stroke:#ff6600"
   points="161.133,33.133 109.933,33.133 127,7.533 144.067,7.533 "
   id="polygon8" />
		<path
   style="fill:#ffe100;stroke:#ff6600"
   d="m 152.6,408.6 h -34.133 c -5.12,0 -8.533,-3.413 -8.533,-8.533 V 357.4 h 51.2 v 42.667 c -10e-4,5.12 -3.414,8.533 -8.534,8.533"
   id="path8" />
	</g>
	<path
   style="fill:#ffa800;stroke:#ff6600"
   d="m 144.067,357.4 v 42.667 c 0,5.12 -3.413,8.533 -8.533,8.533 H 152.6 c 5.12,0 8.533,-3.413 8.533,-8.533 V 357.4 Z"
   id="path9" />
	<path
   style="fill:#ffffff;stroke:#ff6600"
   d="m 127,357.4 v 42.667 c 0,5.12 3.413,8.533 8.533,8.533 h -17.067 c -5.12,0 -8.533,-3.413 -8.533,-8.533 V 357.4 Z"
   id="path10" />
	<path
   id="path11"
   d="m 169.68296,357.41262 c 0,-5.12 -3.45228,-8.56822 -8.57228,-8.56822 l -51.18424,0.0113 c -5.12,0 -8.50891,3.45205 -8.50891,8.57205 l -0.0203,42.64376 c 0,4.89384 2.10734,9.36985 5.44337,12.49423 1.00672,0.0598 2.0188,0.0962 3.02541,0.16675 0.0727,0.004 0.16444,-0.005 0.23724,-8.8e-4 0.39443,-0.12284 0.85657,-0.16451 1.42297,-0.12388 0.51776,0.0368 1.0248,0.098 1.54247,0.11292 0.70207,0.0353 1.38183,0.0968 2.07647,0.17025 0.50895,0.0446 1.02451,0.0193 1.54225,0.0536 0.51645,0.0235 1.08398,0.0635 1.60178,0.1127 0.55062,0.0485 1.05871,0.0582 1.602,0.172 0.12633,0.0228 0.28908,0.0435 0.41538,0.0578 0.22734,0.0257 0.48454,0.0188 0.71193,0.0567 0.15093,0.0198 0.31921,0.0386 0.47469,0.0576 0.3013,0.0195 0.5887,0.0383 0.88985,0.056 1.30948,0.0771 2.66002,0.13984 3.97414,0.10393 1.32937,-0.005 2.64432,-0.01 3.97369,-0.0147 1.30539,-0.005 2.60901,-0.008 3.91439,-0.0145 1.22711,-0.006 2.45259,-8.6e-4 3.67715,-0.0136 1.21699,-0.0135 2.4058,-0.0315 3.61763,-0.0727 1.02122,-0.035 2.061,-0.1329 3.0834,-0.18933 1.1322,-0.0673 2.25653,-0.14016 3.37973,-0.24973 1.10172,-0.1177 2.22198,-0.27116 3.31999,-0.36813 1.19509,-0.13067 2.41767,-0.23239 3.61674,-0.30992 1.56256,-0.10842 3.11652,-0.25583 4.68453,-0.25456 1.20313,-0.004 2.35931,0.022 3.55897,0.10546 0.42134,0.0302 0.82155,0.0796 1.24593,0.11402 3.20458,-3.10932 5.23383,-7.45318 5.23333,-12.23715 z m -17.10892,8.54454 0.007,34.10306 -34.10306,0.007 -0.008,-34.16237 z"
   style="stroke:#ff6600" />
	<path
   d="M 178.2,365.933 H 92.867 c -5.12,0 -8.533,-3.413 -8.533,-8.533 V 237.933 c 0,-5.12 3.413,-8.533 8.533,-8.533 H 178.2 c 5.12,0 8.533,3.413 8.533,8.533 V 357.4 c 0,5.12 -3.413,8.533 -8.533,8.533 z m -76.8,-17.066 h 68.267 v -102.4 H 101.4 Z"
   id="path12"
   style="stroke:#ff6600" />
	<path
   d="M 169.667,246.467 H 101.4 c -5.12,0 -8.533,-3.413 -8.533,-8.533 V 203.8 c 0,-5.12 3.413,-8.533 8.533,-8.533 h 68.267 c 5.12,0 8.533,3.413 8.533,8.533 v 34.133 c 0,5.12 -3.413,8.534 -8.533,8.534 z M 109.933,229.4 h 51.2 v -17.067 h -51.2 z"
   id="path13"
   style="stroke:#ff6600" />
	<path
   d="m 161.133,212.333 h -51.2 c -5.12,0 -8.533,-3.413 -8.533,-8.533 V 84.333 c 0,-5.12 3.413,-8.533 8.533,-8.533 h 51.2 c 5.12,0 8.533,3.413 8.533,8.533 V 203.8 c 0.001,5.12 -3.413,8.533 -8.533,8.533 z M 118.467,195.267 H 152.6 v -102.4 h -34.133 z"
   id="path14"
   style="stroke:#ff6600" />
	<path
   d="m 161.133,127 h -51.2 c -5.12,0 -8.533,-3.413 -8.533,-8.533 0,-5.12 3.413,-8.533 8.533,-8.533 h 51.2 c 5.12,0 8.533,3.413 8.533,8.533 0,5.12 -3.413,8.533 -8.533,8.533 z"
   id="path15"
   style="stroke:#ff6600" />
	<path
   d="m 161.133,92.867 h -51.2 c -3.413,0 -5.973,-1.707 -7.68,-4.267 -1.707,-2.56 -1.707,-5.973 0,-8.533 8.533,-12.8 8.533,-29.013 0,-41.813 -1.707,-2.56 -1.707,-5.973 0,-8.533 1.707,-3.413 4.267,-5.12 7.68,-5.12 h 51.2 c 3.413,0 5.973,1.707 7.68,4.267 1.707,2.56 1.707,5.973 0,8.533 -8.533,12.8 -8.533,29.013 0,41.813 1.707,2.56 1.707,5.973 0,8.533 -1.706,3.413 -4.266,5.12 -7.68,5.12 z M 123.587,75.8 h 23.893 c -3.413,-11.093 -3.413,-23.04 0,-34.133 h -23.893 c 3.413,11.093 3.413,23.04 0,34.133 z"
   id="path16"
   style="stroke:#ff6600" />
	<path
   d="m 161.133,41.667 v 0 h -51.2 c -3.413,0 -5.973,-1.707 -7.68,-4.267 -1.707,-2.56 -1.707,-5.973 0,-8.533 L 119.32,3.267 C 121.88,0.707 124.44,-1 127,-1 h 17.067 c 2.56,0 5.12,1.707 6.827,3.413 l 16.213,24.747 c 1.707,1.707 2.56,3.413 2.56,5.973 0,5.12 -3.414,8.534 -8.534,8.534 z M 126.147,24.6 h 19.627 l -5.973,-8.533 h -8.533 z"
   id="path17"
   style="stroke:#ff6600" />
	<path
   id="path18"
   d="m 161.2851,412.06792 c -0.0714,-1.14406 -0.13133,-2.27006 -0.13133,-3.43948 0,-5.12 -3.45228,-8.56822 -8.57228,-8.56822 l -34.10306,0.007 c -5.12,0 -8.56844,3.39296 -8.56844,8.51296 0,1.39392 0.0213,2.77268 0.0747,4.15141 0.0453,0.002 0.0733,-0.003 0.11862,-4.4e-4 0.38895,-0.11987 0.87563,-0.16315 1.42297,-0.12388 0.51776,0.0368 1.0248,0.098 1.54247,0.11292 0.70207,0.0353 1.38183,0.0968 2.07647,0.17025 0.50895,0.0446 1.02451,0.0193 1.54225,0.0536 0.51645,0.0235 1.08398,0.0635 1.60178,0.1127 0.55062,0.0485 1.05871,0.0582 1.602,0.172 0.12633,0.0228 0.28908,0.0435 0.41538,0.0578 0.22734,0.0257 0.48454,0.0188 0.71193,0.0567 0.15355,0.0201 0.31648,0.0383 0.47469,0.0576 0.29859,0.0193 0.59141,0.0385 0.88985,0.056 1.30948,0.0771 2.66002,0.13984 3.97414,0.10393 1.32937,-0.005 2.64432,-0.01 3.97369,-0.0147 1.30539,-0.005 2.60901,-0.008 3.91439,-0.0145 1.22711,-0.006 2.45259,-8.6e-4 3.67715,-0.0136 1.21699,-0.0135 2.4058,-0.0315 3.61763,-0.0727 1.02122,-0.035 2.061,-0.1329 3.0834,-0.18933 1.1322,-0.0673 2.25653,-0.14016 3.37973,-0.24973 1.10172,-0.1177 2.22198,-0.27116 3.31999,-0.36813 1.19509,-0.13067 2.41767,-0.23239 3.61674,-0.30992 1.56256,-0.10842 3.11652,-0.25583 4.68453,-0.25456 0.55123,-0.002 1.12044,-0.0196 1.66065,-0.006 z"
   style="stroke:#ff6600" />
</g><path
       style="fill:none;fill-opacity:1;stroke:#000000;stroke-width:0.29609;stroke-dasharray:none"
       d="m 16.011397,1.2142926 c 0,0 0.104984,-0.37935849 0.107598,-0.39808699 0.02159,-0.15720061 0.06714,-0.51047306 1.188644,-0.30920637 1.256284,0.22545195 1.52732,1.00972766 1.134731,1.61844906 -0.392588,0.6087203 -4.561922,1.9643254 -5.798577,1.2654232 -0.668942,-0.3780559 0.857472,-0.4616614 1.765093,-0.6520901 0.770274,-0.1616119 1.024795,-0.4554816 -0.149451,-0.4896669 -2.051378,-0.059721 -2.941067,0.2903121 -3.243375,0.222517 -0.0827,-0.018546 0.05619,0.059631 0.05619,0.059631"
       id="path2" /><path
       style="opacity:0.199739;fill:none;fill-opacity:1;stroke:#000000;stroke-width:0.29609;stroke-dasharray:none"
       d="m 16.011397,1.2142926 c 0,0 0.10481,-0.32580971 0.107424,-0.34453821 0.02159,-0.15720061 0.06714,-0.51047306 1.188644,-0.30920637 1.256284,0.22545195 1.52732,1.00972768 1.134731,1.61844908 -0.392588,0.6087203 -4.561922,1.9643254 -5.798577,1.2654232 -0.668942,-0.3780559 0.857472,-0.4616614 1.765093,-0.6520901 0.770274,-0.1616119 1.024795,-0.4554816 -0.149451,-0.4896669 -2.051378,-0.059721 -2.941067,0.2903121 -3.243375,0.222517 -0.0827,-0.018546 0.05619,0.059631 0.05619,0.059631"
       id="path3" /></g></svg>
